<?xml version="1.0" encoding="iso-8859-1"?>
<!-- Uploaded to: SVG Repo, www.svgrepo.com, Generator: SVG Repo Mixer Tools -->
<svg fill="#ffff" height="800px" width="800px" version="1.1" id="Layer_1" xmlns="http://www.w3.org/2000/svg" xmlns:xlink="http://www.w3.org/1999/xlink" 
	 viewBox="0 0 398 398" xml:space="preserve">
<g>
	<g>
		<g>
			<path d="M364.5,272h-80.725l47.302-27.31c1.837-1.061,3.178-2.808,3.728-4.857c0.549-2.049,0.262-4.232-0.799-6.07l-55-95.263
				c-2.209-3.826-7.102-5.137-10.928-2.928l-22.404,12.935c15.154-26.248,27.519-47.664,27.519-47.664
				c2.209-3.826,0.898-8.719-2.928-10.928l-95.263-55c-1.838-1.063-4.022-1.349-6.071-0.8c-2.049,0.549-3.796,1.89-4.857,3.728
				L151.5,59.618V8c0-4.418-3.582-8-8-8h-110c-4.418,0-8,3.582-8,8v382c0,4.418,3.582,8,8,8h331c4.418,0,8-3.582,8-8V280
				C372.5,275.582,368.918,272,364.5,272z M269.148,153.428l47,81.406l-33.775,19.501l-23.5-40.704l-23.5-40.704L269.148,153.428z
				 M127.71,216.613l-72.563,41.895l36.281-62.842L127.71,216.613z M99.428,181.809l19.5-33.774l63.782,36.824l-39,22.517
				L99.428,181.809z M126.253,235.928L147.08,272H63.774L126.253,235.928z M140.11,227.928l33.775-19.5l23.5,40.704L210.588,272
				h-45.033L140.11,227.928z M187.742,200.428l33.775-19.5l23.5,40.704l23.5,40.704L251.775,272h-22.711L187.742,200.428z
				 M173.928,52.771l81.407,47.001l-19.5,33.774l-81.407-47L173.928,52.771z M146.428,100.402l40.703,23.5l40.703,23.5
				l-9.875,17.105l-19.25,11.114l-31.078-17.943l-40.703-23.5L146.428,100.402z M41.5,16h94v39h-94V16z M41.5,71h94v16.331
				L122.412,110H41.5V71z M41.5,126h71.674l-22.517,39H41.5V126z M41.5,181h39.92L41.5,250.144V181z M356.5,382h-315v-94h315V382z"
				/>
			<path d="M87.831,368c18.196,0,33-14.804,33-33c0-18.196-14.804-33-33-33s-33,14.804-33,33C54.831,353.196,69.634,368,87.831,368z
				 M87.831,318c9.374,0,17,7.626,17,17c0,9.374-7.626,17-17,17c-9.374,0-17-7.626-17-17C70.831,325.626,78.457,318,87.831,318z"/>
			<path d="M157.498,369.5c4.418,0,8-3.582,8-8v-16.833h26c4.418,0,8-3.582,8-8c0,0,0-27.914,0-28.167c0-4.418-3.582-8-8-8h-34
				c-4.418,0-8,3.582-8,8v53C149.498,365.918,153.079,369.5,157.498,369.5z M165.498,316.5h18v12.167h-18V316.5z"/>
			<path d="M283.164,369.5c4.418,0,8-3.582,8-8v-24.526l17.504,28.692l0.007-0.004c1.405,2.299,3.931,3.838,6.823,3.838
				c4.418,0,8-3.582,8-8v-53c0-4.418-3.582-8-8-8c-4.418,0-8,3.582-8,8v24.526l-17.504-28.692l-0.007,0.004
				c-1.405-2.299-3.931-3.838-6.823-3.838c-4.418,0-8,3.582-8,8v53C275.164,365.918,278.746,369.5,283.164,369.5z"/>
			<path d="M215.549,369.061c0.866,0.3,1.748,0.441,2.616,0.441c3.315,0,6.415-2.077,7.56-5.387l1.227-3.547h19.092l1.227,3.547
				c1.145,3.31,4.244,5.387,7.56,5.387c0.867,0,1.75-0.142,2.616-0.441c4.175-1.444,6.39-6,4.945-10.176l-18.333-53l-0.006,0.002
				c-0.776-2.238-2.527-4.113-4.939-4.947c-4.174-1.446-8.731,0.77-10.176,4.945l-18.333,53
				C209.159,363.061,211.373,367.616,215.549,369.061z M236.497,332.972l4.011,11.596h-8.023L236.497,332.972z"/>
		</g>
	</g>
</g>
</svg>